<svg width="280" height="40" viewBox="0 0 280 40" xmlns="http://www.w3.org/2000/svg">
    <path d="M263.108 0c.875.014 8.942.272 12.767 4.097 3.627 3.62 4.102 9.106 4.124 11.48v.28c-.001.384-.014.657-.023.79l-.003.049V40H0V0h263.108Zm-.076 1.652h-86.43v36.696h101.72l.005-21.74c.005-.072.473-7.258-3.62-11.344-3.48-3.48-11.593-3.612-11.675-3.612Zm-.757 11.977c2.054 0 3.8.77 5.236 2.312 1.437 1.541 2.156 3.518 2.156 5.93 0 2.327-.742 4.273-2.227 5.838-1.485 1.565-3.246 2.348-5.28 2.348-.907 0-1.75-.16-2.532-.482-.781-.32-1.558-.844-2.33-1.572v7.367h-3.92V14.031h3.92v1.723c.714-.708 1.486-1.24 2.315-1.594a6.703 6.703 0 0 1 2.662-.531ZM193.128 8c1.851 0 3.582.34 5.193 1.02 1.359.574 2.69 1.56 3.992 2.958l-2.852 2.8c-1.805-1.896-3.91-2.843-6.313-2.843-2.095 0-3.849.689-5.262 2.067-1.415 1.38-2.122 3.054-2.122 5.026 0 2.04.734 3.768 2.201 5.184 1.468 1.417 3.278 2.125 5.43 2.125 1.401 0 2.58-.291 3.542-.875.96-.584 1.735-1.499 2.324-2.743H193.1v-3.777h10.704l.03.89c0 1.848-.483 3.6-1.447 5.256-.965 1.657-2.214 2.92-3.747 3.791-1.534.87-3.332 1.307-5.396 1.307-2.208 0-4.179-.476-5.909-1.429-1.732-.953-3.1-2.31-4.108-4.07a11.286 11.286 0 0 1-1.512-5.702c0-2.795.93-5.227 2.792-7.295 2.208-2.46 5.082-3.69 8.622-3.69Zm48.692 5.63c2.479 0 4.494.787 6.047 2.361 1.552 1.575 2.33 3.655 2.33 6.24l-.016.746h-12.685c.183 1.11.671 1.994 1.468 2.65.795.655 1.81.983 3.045.983 1.475 0 2.743-.512 3.804-1.536l3.327 1.55c-.83 1.169-1.823 2.033-2.98 2.593s-2.531.84-4.122.84c-2.469 0-4.48-.773-6.033-2.32-1.553-1.545-2.328-3.482-2.328-5.808 0-2.384.773-4.363 2.32-5.938 1.55-1.574 3.49-2.362 5.823-2.362Zm-18.386 0c1.485 0 2.881.367 4.188 1.105 1.307.737 2.327 1.737 3.06 3.001a8.02 8.02 0 0 1 1.1 4.092 8.154 8.154 0 0 1-1.108 4.136 7.946 7.946 0 0 1-3.016 3.008c-1.273.724-2.676 1.085-4.21 1.085-2.256 0-4.182-.797-5.778-2.39-1.597-1.595-2.395-3.531-2.395-5.81 0-2.44.902-4.475 2.706-6.103 1.581-1.416 3.399-2.125 5.453-2.125Zm-73.572-.293c-2.34 0-4.29.793-5.844 2.384-1.552 1.592-2.33 3.596-2.33 6.008 0 2.351.778 4.306 2.335 5.87 1.56 1.564 3.58 2.346 6.059 2.346 1.597 0 2.974-.286 4.137-.848 1.065-.52 1.991-1.3 2.779-2.333l.211-.288-3.338-1.57c-1.062 1.036-2.34 1.553-3.822 1.553-1.24 0-2.258-.33-3.051-.99-.742-.616-1.217-1.423-1.429-2.428l-.047-.255h12.734l.016-.754c0-2.616-.782-4.72-2.34-6.31-1.56-1.592-3.58-2.385-6.07-2.385Zm-27.51 0c-2.06 0-3.812.776-5.254 2.335-1.438 1.558-2.16 3.557-2.16 5.997 0 2.351.744 4.317 2.23 5.903 1.494 1.58 3.256 2.373 5.3 2.373.908 0 1.75-.16 2.527-.485.696-.289 1.382-.743 2.071-1.354l.259-.237v1.668h3.966V13.74h-3.966v1.746c-.705-.716-1.476-1.256-2.308-1.614a6.663 6.663 0 0 0-2.665-.534Zm-17.696 0c-2.346 0-4.29.793-5.844 2.384-1.553 1.592-2.335 3.596-2.335 6.008 0 2.351.782 4.306 2.34 5.87 1.559 1.564 3.575 2.346 6.06 2.346 1.596 0 2.973-.286 4.135-.848 1.066-.52 1.992-1.3 2.78-2.333l.211-.288-3.338-1.57c-1.068 1.036-2.34 1.553-3.822 1.553-1.239 0-2.258-.33-3.057-.99-.737-.616-1.211-1.423-1.423-2.428l-.047-.255h12.733l.017-.754c0-2.616-.782-4.72-2.34-6.31-1.56-1.592-3.58-2.385-6.07-2.385Zm-63.25 0c-2.06 0-3.888.716-5.474 2.148-1.812 1.646-2.715 3.7-2.715 6.167 0 2.307.798 4.262 2.401 5.875 1.603 1.614 3.536 2.418 5.805 2.418 1.536 0 2.947-.364 4.224-1.096a8.038 8.038 0 0 0 3.03-3.045 8.304 8.304 0 0 0 1.112-4.18 8.124 8.124 0 0 0-1.107-4.135 8.013 8.013 0 0 0-3.073-3.034 8.324 8.324 0 0 0-4.203-1.118Zm171.627.292c.51 0 1.045.135 1.605.402l-1.23 3.375c-.462-.23-.844-.345-1.143-.345-.607 0-1.12.374-1.54 1.12-.42.747-.63 2.212-.63 4.394l.015.761v6.319h-3.92V14.03h3.385v1.967c.366-.775.854-1.364 1.461-1.766a3.543 3.543 0 0 1 1.997-.603Zm-45.63-.292c-.721 0-1.393.198-1.999.606-.543.362-.99.872-1.343 1.534l-.127.255V13.74h-3.398v15.798h3.938V23.15l-.017-.771c0-2.208.21-3.69.633-4.444.42-.755.937-1.129 1.548-1.129.255 0 .575.085.952.255l.194.092 1.234-3.414c-.562-.27-1.097-.402-1.614-.402Zm-28.578-5.694h-3.965v21.894h3.965V7.643Zm-56.569.54h-4.813v21.354h4.885c2.77 0 4.715-.176 5.832-.523 1.124-.346 2.165-.974 3.128-1.889.964-.908 1.72-2.053 2.265-3.43.545-1.382.82-2.891.82-4.538 0-2.312-.49-4.339-1.465-6.068-.975-1.734-2.22-2.984-3.729-3.755-1.509-.771-3.817-1.151-6.923-1.151Zm-21.132 5.154c-.766 0-1.515.143-2.242.44-.651.265-1.363.712-2.148 1.338l-.297.243v-1.62h-3.96v15.8h3.96v-6.339c0-1.64.06-2.709.176-3.204.22-.948.622-1.691 1.195-2.225.573-.54 1.26-.804 2.066-.804.616 0 1.134.16 1.553.485.424.324.715.792.886 1.415.161.58.244 1.722.253 3.429v7.242h3.922v-10.44c0-1.817-.457-3.194-1.377-4.125-1.096-1.09-2.423-1.635-3.987-1.635ZM20.752 8.183h-7.407v21.354h4.065v-6.844l1.168.005h.742c10.2-.011 12.222-.873 12.222-7.22 0-6.704-3.058-7.267-10.456-7.294l-.334-.001Zm240.699 9.065c-1.244 0-2.276.422-3.096 1.263-.82.843-1.23 1.944-1.23 3.303 0 1.388.41 2.511 1.23 3.367.82.858 1.852 1.286 3.096 1.286 1.205 0 2.22-.436 3.045-1.307.824-.871 1.237-1.982 1.237-3.331 0-1.34-.405-2.44-1.216-3.296-.81-.857-1.832-1.285-3.066-1.285Zm-37.952.072c-1.227 0-2.248.423-3.064 1.27-.817.847-1.225 1.932-1.225 3.253 0 1.36.404 2.46 1.21 3.303.807.842 1.828 1.263 3.065 1.263 1.236 0 2.266-.426 3.086-1.278.821-.852 1.231-1.947 1.231-3.288 0-1.34-.402-2.43-1.21-3.267-.806-.837-1.837-1.256-3.093-1.256Zm-100.342-.327c1.256 0 2.292.427 3.112 1.278.82.852 1.23 1.966 1.23 3.34 0 1.403-.41 2.538-1.23 3.404-.82.867-1.852 1.3-3.097 1.3-1.207 0-2.222-.44-3.047-1.321-.824-.881-1.237-2.004-1.237-3.369 0-1.355.405-2.466 1.215-3.332.811-.866 1.829-1.3 3.054-1.3Zm-81.684.073c1.26 0 2.295.424 3.105 1.27.81.848 1.215 1.948 1.215 3.304 0 1.355-.412 2.463-1.237 3.325-.824.861-1.857 1.292-3.098 1.292-1.241 0-2.267-.426-3.076-1.278-.81-.851-1.216-1.965-1.216-3.34 0-1.335.41-2.432 1.23-3.288.82-.857 1.845-1.285 3.077-1.285ZM82.857 12.1c2.527 0 4.362.563 5.504 1.687 1.269 1.25 1.902 3.008 1.902 5.276 0 1.473-.266 2.713-.798 3.72-.532 1.008-1.218 1.726-2.055 2.152-.782.398-2.008.61-3.68.636l-.364.003h-1.888V12.1h1.379Zm159.158 4.846c-1.1 0-2.067.306-2.897.92-.522.382-1.005 1.057-1.449 2.024h8.564c-.262-.87-.776-1.58-1.544-2.125-.767-.546-1.66-.819-2.674-.819Zm-137.164-.257c1.019 0 1.913.275 2.684.827.7.502 1.191 1.14 1.472 1.913l.078.236h-8.597c.446-.978.93-1.66 1.454-2.047.834-.62 1.804-.93 2.909-.93Zm45.208 0c1.02 0 1.913.275 2.684.827.701.502 1.192 1.14 1.472 1.913l.077.236h-8.597c.447-.978.932-1.66 1.455-2.047.834-.62 1.803-.93 2.91-.93Zm-132.633-4.57h6.952c1.232.008 3.27.162 3.305 3.262.034 3.208-1.951 3.245-3.387 3.262l-.11.001h-6.76V12.12Z" fill="#06080A" fill-rule="evenodd"/>
</svg>